<svg width="100" height="78" viewBox="0 0 100 78" fill="none" xmlns="http://www.w3.org/2000/svg">
<path d="M43.0014 16.0002H45.0014V18.0002H43.0014V16.0002Z" fill="#565656"/>
<path d="M43.0014 19.9998H45.0014V21.9998H43.0014V19.9998Z" fill="#565656"/>
<path d="M43.0014 23.9999H45.0014V25.9999H43.0014V23.9999Z" fill="#565656"/>
<path d="M43.0014 28.0001H45.0014V30.0001H43.0014V28.0001Z" fill="#565656"/>
<path d="M46.9993 16.0002H48.9993V18.0002H46.9993V16.0002Z" fill="#565656"/>
<path d="M54.9996 23.9999H56.9996V25.9999H54.9996V23.9999Z" fill="#565656"/>
<path d="M54.9996 19.9998H56.9996V21.9998H54.9996V19.9998Z" fill="#565656"/>
<path d="M46.9993 19.9998H48.9993V21.9998H46.9993V19.9998Z" fill="#565656"/>
<path d="M54.9996 28.0001H56.9996V30.0001H54.9996V28.0001Z" fill="#565656"/>
<path d="M46.9993 23.9999H48.9993V25.9999H46.9993V23.9999Z" fill="#565656"/>
<path d="M54.9996 31.9998H56.9996V33.9998H54.9996V31.9998Z" fill="#565656"/>
<path d="M46.9993 28.0001H48.9993V30.0001H46.9993V28.0001Z" fill="#565656"/>
<path d="M62 36H61V17C61 16.7348 60.8946 16.4804 60.7071 16.2929C60.5196 16.1054 60.2652 16 60 16H53V13C53 12.7348 52.8946 12.4804 52.7071 12.2929C52.5196 12.1054 52.2652 12 52 12H40C39.7348 12 39.4804 12.1054 39.2929 12.2929C39.1054 12.4804 39 12.7348 39 13V36H38C37.7348 36 37.4804 36.1054 37.2929 36.2929C37.1054 36.4804 37 36.7348 37 37C37 37.2652 37.1054 37.5196 37.2929 37.7071C37.4804 37.8946 37.7348 38 38 38H62C62.2652 38 62.5196 37.8946 62.7071 37.7071C62.8946 37.5196 63 37.2652 63 37C63 36.7348 62.8946 36.4804 62.7071 36.2929C62.5196 36.1054 62.2652 36 62 36ZM41 14H51V33C51 33.2652 51.1054 33.5196 51.2929 33.7071C51.4804 33.8946 51.7348 34 52 34C52.2652 34 52.5196 33.8946 52.7071 33.7071C52.8946 33.5196 53 33.2652 53 33V18H59V36H49V33C49 32.7348 48.8946 32.4804 48.7071 32.2929C48.5196 32.1054 48.2652 32 48 32H44C43.7348 32 43.4804 32.1054 43.2929 32.2929C43.1054 32.4804 43 32.7348 43 33V36H41V14ZM47 36H45V34H47V36Z" fill="#565656"/>
<path d="M18.4597 61.609H15.3917L14.9367 63H11.9077L15.2747 53.796H18.6027L21.9567 63H18.9147L18.4597 61.609ZM17.7577 59.438L16.9257 56.877L16.0937 59.438H17.7577ZM25.4984 56.669C25.6804 56.331 25.9404 56.0667 26.2784 55.876C26.6251 55.6767 27.0367 55.577 27.5134 55.577C28.0854 55.577 28.6011 55.7287 29.0604 56.032C29.5197 56.3267 29.8794 56.76 30.1394 57.332C30.4081 57.8953 30.5424 58.5627 30.5424 59.334C30.5424 60.1053 30.4081 60.777 30.1394 61.349C29.8794 61.9123 29.5197 62.3457 29.0604 62.649C28.6011 62.9437 28.0854 63.091 27.5134 63.091C27.0367 63.091 26.6251 62.9957 26.2784 62.805C25.9404 62.6057 25.6804 62.337 25.4984 61.999V66.51H22.6124V55.668H25.4984V56.669ZM27.6174 59.334C27.6174 58.944 27.5177 58.6407 27.3184 58.424C27.1191 58.2073 26.8634 58.099 26.5514 58.099C26.2394 58.099 25.9837 58.2073 25.7844 58.424C25.5851 58.6407 25.4854 58.944 25.4854 59.334C25.4854 59.724 25.5851 60.0273 25.7844 60.244C25.9837 60.4607 26.2394 60.569 26.5514 60.569C26.8634 60.569 27.1191 60.4607 27.3184 60.244C27.5177 60.0273 27.6174 59.724 27.6174 59.334ZM31.0583 59.334C31.0583 58.5627 31.1883 57.8953 31.4483 57.332C31.717 56.76 32.081 56.3267 32.5403 56.032C32.9997 55.7287 33.5153 55.577 34.0873 55.577C34.564 55.577 34.9757 55.6767 35.3223 55.876C35.669 56.0667 35.9333 56.331 36.1153 56.669V55.668H38.9883V63H36.1153V61.999C35.9333 62.337 35.669 62.6057 35.3223 62.805C34.9757 62.9957 34.564 63.091 34.0873 63.091C33.5153 63.091 32.9997 62.9437 32.5403 62.649C32.081 62.3457 31.717 61.9123 31.4483 61.349C31.1883 60.777 31.0583 60.1053 31.0583 59.334ZM36.1153 59.334C36.1153 58.944 36.0157 58.6407 35.8163 58.424C35.617 58.2073 35.3613 58.099 35.0493 58.099C34.7373 58.099 34.4817 58.2073 34.2823 58.424C34.083 58.6407 33.9833 58.944 33.9833 59.334C33.9833 59.724 34.083 60.0273 34.2823 60.244C34.4817 60.4607 34.7373 60.569 35.0493 60.569C35.3613 60.569 35.617 60.4607 35.8163 60.244C36.0157 60.0273 36.1153 59.724 36.1153 59.334ZM43.1703 57.02C43.4649 56.5953 43.8246 56.2573 44.2493 56.006C44.6739 55.746 45.1159 55.616 45.5753 55.616V58.697H44.7563C44.2103 58.697 43.8073 58.7923 43.5473 58.983C43.2959 59.1737 43.1703 59.5117 43.1703 59.997V63H40.2843V55.668H43.1703V57.02ZM50.9156 60.543V63H49.8236C47.813 63 46.8076 61.999 46.8076 59.997V58.073H45.8976V55.668H46.8076V53.9H49.6936V55.668H50.8896V58.073H49.6936V60.049C49.6936 60.2223 49.7326 60.348 49.8106 60.426C49.8973 60.504 50.036 60.543 50.2266 60.543H50.9156ZM61.8037 55.616C62.7397 55.616 63.4634 55.8977 63.9747 56.461C64.4947 57.0243 64.7547 57.787 64.7547 58.749V63H61.8817V59.113C61.8817 58.801 61.7864 58.5583 61.5957 58.385C61.4137 58.203 61.1667 58.112 60.8547 58.112C60.5341 58.112 60.2827 58.203 60.1007 58.385C59.9187 58.5583 59.8277 58.801 59.8277 59.113V63H56.9547V59.113C56.9547 58.801 56.8594 58.5583 56.6687 58.385C56.4867 58.203 56.2397 58.112 55.9277 58.112C55.6071 58.112 55.3557 58.203 55.1737 58.385C54.9917 58.5583 54.9007 58.801 54.9007 59.113V63H52.0147V55.668H54.9007V56.656C55.1087 56.344 55.3904 56.0927 55.7457 55.902C56.1097 55.7113 56.5344 55.616 57.0197 55.616C57.5484 55.616 58.0164 55.733 58.4237 55.967C58.8311 56.1923 59.1561 56.513 59.3987 56.929C59.6674 56.5477 60.0097 56.2357 60.4257 55.993C60.8417 55.7417 61.3011 55.616 61.8037 55.616ZM73.103 59.269C73.103 59.4683 73.09 59.659 73.064 59.841H68.423C68.4663 60.4737 68.7306 60.79 69.216 60.79C69.528 60.79 69.7533 60.647 69.892 60.361H72.947C72.843 60.881 72.622 61.349 72.284 61.765C71.9546 62.1723 71.5343 62.4973 71.023 62.74C70.5203 62.974 69.9656 63.091 69.359 63.091C68.631 63.091 67.981 62.9393 67.409 62.636C66.8456 62.3327 66.4036 61.8993 66.083 61.336C65.771 60.764 65.615 60.0967 65.615 59.334C65.615 58.5713 65.771 57.9083 66.083 57.345C66.4036 56.773 66.8456 56.3353 67.409 56.032C67.981 55.7287 68.631 55.577 69.359 55.577C70.087 55.577 70.7326 55.7287 71.296 56.032C71.868 56.3267 72.31 56.7513 72.622 57.306C72.9426 57.8607 73.103 58.515 73.103 59.269ZM70.178 58.58C70.178 58.3373 70.1 58.1553 69.944 58.034C69.788 57.904 69.593 57.839 69.359 57.839C68.8476 57.839 68.5486 58.086 68.462 58.58H70.178ZM79.1507 55.616C79.9914 55.616 80.6457 55.8977 81.1137 56.461C81.5904 57.0243 81.8287 57.787 81.8287 58.749V63H78.9557V59.113C78.9557 58.7663 78.8604 58.4933 78.6697 58.294C78.4877 58.086 78.2407 57.982 77.9287 57.982C77.6081 57.982 77.3567 58.086 77.1747 58.294C76.9927 58.4933 76.9017 58.7663 76.9017 59.113V63H74.0157V55.668H76.9017V56.786C77.1271 56.4393 77.4261 56.1577 77.7987 55.941C78.1801 55.7243 78.6307 55.616 79.1507 55.616ZM87.6432 60.543V63H86.5512C84.5405 63 83.5352 61.999 83.5352 59.997V58.073H82.6252V55.668H83.5352V53.9H86.4212V55.668H87.6172V58.073H86.4212V60.049C86.4212 60.2223 86.4602 60.348 86.5382 60.426C86.6248 60.504 86.7635 60.543 86.9542 60.543H87.6432Z" fill="#565656"/>
</svg>
