<svg width="15" height="12" viewBox="0 0 15 12" fill="none" xmlns="http://www.w3.org/2000/svg">
<g clip-path="url(#clip0_305_3513)">
<path d="M1.3125 5.29506H12.5341L8.23716 1.20231C8.01216 0.987997 8.00344 0.631934 8.21775 0.406934C8.43178 0.182215 8.78784 0.173215 9.01312 0.387528L13.9204 5.0619C14.1327 5.27453 14.25 5.5569 14.25 5.85756C14.25 6.15793 14.1327 6.44059 13.9105 6.6625L9.01284 11.3273C8.904 11.4311 8.7645 11.4826 8.625 11.4826C8.4765 11.4826 8.328 11.4241 8.21747 11.3079C8.00316 11.0829 8.01188 10.7271 8.23688 10.5128L12.5518 6.42006H1.3125C1.002 6.42006 0.75 6.16806 0.75 5.85756C0.75 5.54706 1.002 5.29506 1.3125 5.29506Z" fill="#216B9B"/>
</g>
<defs>
<clipPath id="clip0_305_3513">
<rect width="14" height="12" fill="white" transform="translate(0.5)"/>
</clipPath>
</defs>
</svg>
