<svg width="35" height="35" viewBox="0 0 35 35" fill="none" xmlns="http://www.w3.org/2000/svg">
<g clip-path="url(#clip0_309_1388)">
<path d="M18.4332 21.2278C18.1999 21.2278 18.0054 21.1501 17.8499 20.9945C16.8388 20.0612 16.3721 18.9334 16.4499 17.6112C16.4499 16.6001 16.6832 15.6667 17.1499 14.8112C17.2277 14.5778 17.3638 14.4417 17.5582 14.4028C17.7527 14.364 17.9471 14.4028 18.1416 14.5195C18.336 14.6362 18.4527 14.7917 18.4916 14.9862C18.5304 15.1806 18.511 15.3556 18.4332 15.5112C18.1221 15.9001 17.9277 16.4445 17.8499 17.1445C17.6943 18.2334 18.0443 19.1667 18.8999 19.9445C19.1332 20.1778 19.1916 20.4501 19.0749 20.7612C18.9582 21.0723 18.7054 21.2278 18.3166 21.2278H18.4332ZM5.48322 24.3778C4.62766 24.3001 3.88877 23.9501 3.26655 23.3278C2.56655 22.6278 2.21655 21.7528 2.21655 20.7028C2.21655 19.6528 2.56655 18.7778 3.26655 18.0778L10.6166 10.6112C10.9277 10.3778 11.1999 10.1834 11.4332 10.0278C11.6666 9.87228 11.8804 9.8334 12.0749 9.91117C12.2693 9.98895 12.4054 10.1056 12.4832 10.2612C12.561 10.4167 12.5804 10.5917 12.5416 10.7862C12.5027 10.9806 12.386 11.1362 12.1916 11.2528C11.9971 11.3695 11.8221 11.5056 11.6666 11.6612L4.31655 19.1278C3.84989 19.5167 3.61655 20.0417 3.61655 20.7028C3.61655 21.364 3.84989 21.889 4.31655 22.2778C4.54989 22.589 4.861 22.7834 5.24989 22.8612L7.46655 20.6445C7.62211 20.489 7.81655 20.4112 8.04989 20.4112L9.09989 20.6445L9.68322 20.0612V18.1945C9.68322 18.039 9.761 17.8834 9.91655 17.7278C10.0721 17.5723 10.2277 17.4945 10.3832 17.4945L12.3666 17.3778L14.9332 14.8112L15.1666 14.5778C15.2443 14.4223 15.3804 14.3251 15.5749 14.2862C15.7693 14.2473 15.9638 14.2862 16.1582 14.4028C16.3527 14.5195 16.4693 14.6751 16.5082 14.8695C16.5471 15.064 16.4888 15.239 16.3332 15.3945L15.9832 15.8612L13.1832 18.6612C13.0277 18.8167 12.8721 18.8945 12.7166 18.8945H11.1999V20.4112C11.1999 20.6445 11.1221 20.8001 10.9666 20.8778L9.91655 22.0445C9.761 22.2001 9.56655 22.239 9.33322 22.1612L8.28322 22.0445L6.06655 24.2612C5.911 24.339 5.71655 24.3778 5.48322 24.3778ZM18.6666 15.9778C17.2666 15.9778 15.9638 15.6667 14.7582 15.0445C13.5527 14.4223 12.561 13.5473 11.7832 12.4195C11.0054 11.2917 10.5582 10.0278 10.4416 8.62784C10.3249 7.22784 10.5388 5.90562 11.0832 4.66117C11.6277 3.41673 12.4443 2.38617 13.5332 1.56951C14.6221 0.752838 15.8666 0.22784 17.2666 -0.00549316C17.4999 -0.083271 17.7138 -0.00549316 17.9082 0.22784C18.1027 0.461174 18.161 0.713951 18.0832 0.986172C18.0054 1.2584 17.811 1.4334 17.4999 1.51117C15.7888 1.74451 14.4082 2.56117 13.3582 3.96117C12.3082 5.36117 11.8999 6.93617 12.1332 8.68617C12.3666 10.4362 13.1443 11.8556 14.4666 12.9445C15.7888 14.0334 17.3054 14.539 19.0166 14.4612C20.7277 14.3834 22.186 13.7028 23.3916 12.4195C24.5971 11.1362 25.1999 9.63895 25.1999 7.92784C25.1999 6.83895 24.9666 5.82784 24.4999 4.89451C24.0332 3.96117 23.3332 3.1834 22.3999 2.56117C22.2443 2.40562 22.1666 2.23062 22.1666 2.03617C22.1666 1.84173 22.2249 1.66673 22.3416 1.51117C22.4582 1.35562 22.6138 1.2584 22.8082 1.21951C23.0027 1.18062 23.1777 1.23895 23.3332 1.39451C24.7332 2.40562 25.7249 3.72784 26.3082 5.36117C26.8916 6.99451 26.911 8.64729 26.3666 10.3195C25.8221 11.9917 24.8499 13.3528 23.4499 14.4028C22.0499 15.4528 20.4554 15.9778 18.6666 15.9778ZM20.2999 1.51117C20.2221 1.51117 20.1249 1.49173 20.0082 1.45284C19.8916 1.41395 19.7749 1.31673 19.6582 1.16117C19.5416 1.00562 19.5027 0.811172 19.5416 0.577839C19.5804 0.344505 19.736 0.169506 20.0082 0.0528412C20.2804 -0.0638275 20.5332 -0.0249367 20.7666 0.169506C20.9999 0.363953 21.0777 0.577839 20.9999 0.811172C20.9221 1.04451 20.8249 1.21951 20.7082 1.33617C20.5916 1.45284 20.4166 1.51117 20.1832 1.51117H20.2999ZM19.7166 9.32784C18.861 9.32784 18.161 9.05562 17.6166 8.51117C17.0721 7.96673 16.7999 7.28617 16.7999 6.46951C16.7999 5.65284 17.0721 4.95284 17.6166 4.36951C18.161 3.78617 18.8416 3.49451 19.6582 3.49451C20.4749 3.49451 21.1749 3.78617 21.7582 4.36951C22.3416 4.95284 22.6332 5.65284 22.6332 6.46951C22.6332 7.28617 22.3416 7.96673 21.7582 8.51117C21.1749 9.05562 20.4943 9.32784 19.7166 9.32784ZM19.7166 5.01117C19.3277 5.01117 18.9777 5.14728 18.6666 5.41951C18.3554 5.69173 18.1999 6.02228 18.1999 6.41117C18.1999 6.80006 18.3554 7.15006 18.6666 7.46117C18.9777 7.77228 19.3277 7.92784 19.7166 7.92784C20.1054 7.92784 20.436 7.77228 20.7082 7.46117C20.9804 7.15006 21.1166 6.80006 21.1166 6.41117C21.1166 6.02228 20.9804 5.69173 20.7082 5.41951C20.436 5.14728 20.1054 5.01117 19.7166 5.01117ZM29.1666 34.9945C29.011 34.9945 28.8554 34.9167 28.6999 34.7612C28.5443 34.6056 28.4666 34.4501 28.4666 34.2945V26.0112V25.6612C28.3888 25.4278 28.4277 25.214 28.5832 25.0195C28.7388 24.8251 28.9332 24.7667 29.1666 24.8445H29.9832L22.1666 18.4278L14.2332 24.7278H15.0499C15.361 24.7278 15.5749 24.8251 15.6916 25.0195C15.8082 25.214 15.8666 25.4278 15.8666 25.6612L15.7499 26.0112V34.2945C15.7499 34.4501 15.6916 34.6056 15.5749 34.7612C15.4582 34.9167 15.2832 34.9945 15.0499 34.9945C14.8166 34.9945 14.6416 34.9167 14.5249 34.7612C14.4082 34.6056 14.3499 34.4501 14.3499 34.2945V26.2445H12.1332C11.8221 26.2445 11.6082 26.089 11.4916 25.7778C11.3749 25.4667 11.4332 25.1945 11.6666 24.9612L21.6999 16.9112C21.7777 16.8334 21.9138 16.7945 22.1082 16.7945C22.3027 16.7945 22.4777 16.8334 22.6332 16.9112L32.5499 24.9612C32.7832 25.1945 32.8416 25.4667 32.7249 25.7778C32.6082 26.089 32.3943 26.2445 32.0832 26.2445H29.9832V34.2945C29.9832 34.4501 29.9054 34.6056 29.7499 34.7612C29.5943 34.9167 29.3999 34.9945 29.1666 34.9945ZM22.1666 23.4445C22.011 23.4445 21.8554 23.3667 21.6999 23.2112C21.5443 23.0556 21.4666 22.8806 21.4666 22.6862C21.4666 22.4917 21.5443 22.3167 21.6999 22.1612C24.3443 19.8278 25.5499 17.4556 25.3166 15.0445C25.0832 13.1001 24.0332 11.1945 22.1666 9.32784C21.2332 8.39451 20.2999 7.65562 19.3666 7.11117C19.0554 6.95562 18.8999 6.72228 18.8999 6.41117C18.8999 6.10006 19.036 5.88617 19.3082 5.76951C19.5804 5.65284 19.8332 5.67229 20.0666 5.82784C21.1554 6.45006 22.2054 7.30562 23.2166 8.39451C25.3166 10.4945 26.4832 12.6334 26.7166 14.8112C27.0277 17.7667 25.6666 20.6056 22.6332 23.3278C22.5554 23.4056 22.3999 23.4445 22.1666 23.4445ZM24.0332 34.7612C23.8777 34.7612 23.7221 34.7028 23.5666 34.5862C23.411 34.4695 23.3332 34.2945 23.3332 34.0612V29.6278C23.3332 29.3167 23.236 29.064 23.0416 28.8695C22.8471 28.6751 22.5943 28.5778 22.2832 28.5778H21.4666C21.1554 28.5778 20.9027 28.6751 20.7082 28.8695C20.5138 29.064 20.4166 29.3167 20.4166 29.6278V34.0612C20.4166 34.2945 20.3388 34.4695 20.1832 34.5862C20.0277 34.7028 19.8527 34.7612 19.6582 34.7612C19.4638 34.7612 19.2888 34.7028 19.1332 34.5862C18.9777 34.4695 18.8999 34.2945 18.8999 34.0612V29.6278C18.8999 28.9278 19.1527 28.3251 19.6582 27.8195C20.1638 27.314 20.7666 27.0612 21.4666 27.0612H22.2832C22.9832 27.0612 23.586 27.314 24.0916 27.8195C24.5971 28.3251 24.811 28.9278 24.7332 29.6278V34.0612C24.811 34.2945 24.7721 34.4695 24.6166 34.5862C24.461 34.7028 24.2666 34.7612 24.0332 34.7612Z" fill="#2B2B2B"/>
</g>
<defs>
<clipPath id="clip0_309_1388">
<rect width="35" height="35" fill="white" transform="matrix(1 0 0 -1 0 34.9945)"/>
</clipPath>
</defs>
</svg>
