<svg width="212" height="66" viewBox="0 0 212 66" fill="none" xmlns="http://www.w3.org/2000/svg">
<path d="M16.9 22.3399V34.9399C16.9 36.1999 17.21 37.1699 17.83 37.8499C18.45 38.5299 19.36 38.8699 20.56 38.8699C21.76 38.8699 22.68 38.5299 23.32 37.8499C23.96 37.1699 24.28 36.1999 24.28 34.9399V22.3399H29.41V34.9099C29.41 36.7899 29.01 38.3799 28.21 39.6799C27.41 40.9799 26.33 41.9599 24.97 42.6199C23.63 43.2799 22.13 43.6099 20.47 43.6099C18.81 43.6099 17.32 43.2899 16 42.6499C14.7 41.9899 13.67 41.0099 12.91 39.7099C12.15 38.3899 11.77 36.7899 11.77 34.9099V22.3399H16.9ZM38.1423 29.4499C38.7423 28.5299 39.4923 27.8099 40.3923 27.2899C41.2923 26.7499 42.2923 26.4799 43.3923 26.4799V31.9099H41.9823C40.7023 31.9099 39.7423 32.1899 39.1023 32.7499C38.4623 33.2899 38.1423 34.2499 38.1423 35.6299V43.3999H33.0123V26.6599H38.1423V29.4499ZM50.9744 29.0299C51.4544 28.2499 52.1444 27.6199 53.0444 27.1399C53.9444 26.6599 54.9744 26.4199 56.1344 26.4199C57.5144 26.4199 58.7644 26.7699 59.8844 27.4699C61.0044 28.1699 61.8844 29.1699 62.5244 30.4699C63.1844 31.7699 63.5144 33.2799 63.5144 34.9999C63.5144 36.7199 63.1844 38.2399 62.5244 39.5599C61.8844 40.8599 61.0044 41.8699 59.8844 42.5899C58.7644 43.2899 57.5144 43.6399 56.1344 43.6399C54.9544 43.6399 53.9244 43.4099 53.0444 42.9499C52.1644 42.4699 51.4744 41.8399 50.9744 41.0599V43.3999H45.8444V21.1999H50.9744V29.0299ZM58.2944 34.9999C58.2944 33.7199 57.9344 32.7199 57.2144 31.9999C56.5144 31.2599 55.6444 30.8899 54.6044 30.8899C53.5844 30.8899 52.7144 31.2599 51.9944 31.9999C51.2944 32.7399 50.9444 33.7499 50.9444 35.0299C50.9444 36.3099 51.2944 37.3199 51.9944 38.0599C52.7144 38.7999 53.5844 39.1699 54.6044 39.1699C55.6244 39.1699 56.4944 38.7999 57.2144 38.0599C57.9344 37.2999 58.2944 36.2799 58.2944 34.9999ZM65.1857 34.9999C65.1857 33.2799 65.5057 31.7699 66.1457 30.4699C66.8057 29.1699 67.6957 28.1699 68.8157 27.4699C69.9357 26.7699 71.1857 26.4199 72.5657 26.4199C73.7457 26.4199 74.7757 26.6599 75.6557 27.1399C76.5557 27.6199 77.2457 28.2499 77.7257 29.0299V26.6599H82.8557V43.3999H77.7257V41.0299C77.2257 41.8099 76.5257 42.4399 75.6257 42.9199C74.7457 43.3999 73.7157 43.6399 72.5357 43.6399C71.1757 43.6399 69.9357 43.2899 68.8157 42.5899C67.6957 41.8699 66.8057 40.8599 66.1457 39.5599C65.5057 38.2399 65.1857 36.7199 65.1857 34.9999ZM77.7257 35.0299C77.7257 33.7499 77.3657 32.7399 76.6457 31.9999C75.9457 31.2599 75.0857 30.8899 74.0657 30.8899C73.0457 30.8899 72.1757 31.2599 71.4557 31.9999C70.7557 32.7199 70.4057 33.7199 70.4057 34.9999C70.4057 36.2799 70.7557 37.2999 71.4557 38.0599C72.1757 38.7999 73.0457 39.1699 74.0657 39.1699C75.0857 39.1699 75.9457 38.7999 76.6457 38.0599C77.3657 37.3199 77.7257 36.3099 77.7257 35.0299ZM96.767 26.4799C98.727 26.4799 100.287 27.1199 101.447 28.3999C102.627 29.6599 103.217 31.3999 103.217 33.6199V43.3999H98.117V34.3099C98.117 33.1899 97.827 32.3199 97.247 31.6999C96.667 31.0799 95.887 30.7699 94.907 30.7699C93.927 30.7699 93.147 31.0799 92.567 31.6999C91.987 32.3199 91.697 33.1899 91.697 34.3099V43.3999H86.567V26.6599H91.697V28.8799C92.217 28.1399 92.917 27.5599 93.797 27.1399C94.677 26.6999 95.667 26.4799 96.767 26.4799Z" fill="white"/>
<path d="M111.912 26.4499V30.7099H118.782V34.6699H111.912V39.2899H119.682V43.3999H106.782V22.3399H119.682V26.4499H111.912ZM129.822 43.6399C128.362 43.6399 127.062 43.3899 125.922 42.8899C124.782 42.3899 123.882 41.7099 123.222 40.8499C122.562 39.9699 122.192 38.9899 122.112 37.9099H127.182C127.242 38.4899 127.512 38.9599 127.992 39.3199C128.472 39.6799 129.062 39.8599 129.762 39.8599C130.402 39.8599 130.892 39.7399 131.232 39.4999C131.592 39.2399 131.772 38.9099 131.772 38.5099C131.772 38.0299 131.522 37.6799 131.022 37.4599C130.522 37.2199 129.712 36.9599 128.592 36.6799C127.392 36.3999 126.392 36.1099 125.592 35.8099C124.792 35.4899 124.102 34.9999 123.522 34.3399C122.942 33.6599 122.652 32.7499 122.652 31.6099C122.652 30.6499 122.912 29.7799 123.432 28.9999C123.972 28.1999 124.752 27.5699 125.772 27.1099C126.812 26.6499 128.042 26.4199 129.462 26.4199C131.562 26.4199 133.212 26.9399 134.412 27.9799C135.632 29.0199 136.332 30.3999 136.512 32.1199H131.772C131.692 31.5399 131.432 31.0799 130.992 30.7399C130.572 30.3999 130.012 30.2299 129.312 30.2299C128.712 30.2299 128.252 30.3499 127.932 30.5899C127.612 30.8099 127.452 31.1199 127.452 31.5199C127.452 31.9999 127.702 32.3599 128.202 32.5999C128.722 32.8399 129.522 33.0799 130.602 33.3199C131.842 33.6399 132.852 33.9599 133.632 34.2799C134.412 34.5799 135.092 35.0799 135.672 35.7799C136.272 36.4599 136.582 37.3799 136.602 38.5399C136.602 39.5199 136.322 40.3999 135.762 41.1799C135.222 41.9399 134.432 42.5399 133.392 42.9799C132.372 43.4199 131.182 43.6399 129.822 43.6399ZM149.071 39.0499V43.3999H146.461C144.601 43.3999 143.151 42.9499 142.111 42.0499C141.071 41.1299 140.551 39.6399 140.551 37.5799V30.9199H138.511V26.6599H140.551V22.5799H145.681V26.6599H149.041V30.9199H145.681V37.6399C145.681 38.1399 145.801 38.4999 146.041 38.7199C146.281 38.9399 146.681 39.0499 147.241 39.0499H149.071ZM150.908 34.9999C150.908 33.2799 151.228 31.7699 151.868 30.4699C152.528 29.1699 153.418 28.1699 154.538 27.4699C155.658 26.7699 156.908 26.4199 158.288 26.4199C159.468 26.4199 160.498 26.6599 161.378 27.1399C162.278 27.6199 162.968 28.2499 163.448 29.0299V26.6599H168.578V43.3999H163.448V41.0299C162.948 41.8099 162.248 42.4399 161.348 42.9199C160.468 43.3999 159.438 43.6399 158.258 43.6399C156.898 43.6399 155.658 43.2899 154.538 42.5899C153.418 41.8699 152.528 40.8599 151.868 39.5599C151.228 38.2399 150.908 36.7199 150.908 34.9999ZM163.448 35.0299C163.448 33.7499 163.088 32.7399 162.368 31.9999C161.668 31.2599 160.808 30.8899 159.788 30.8899C158.768 30.8899 157.898 31.2599 157.178 31.9999C156.478 32.7199 156.128 33.7199 156.128 34.9999C156.128 36.2799 156.478 37.2999 157.178 38.0599C157.898 38.7999 158.768 39.1699 159.788 39.1699C160.808 39.1699 161.668 38.7999 162.368 38.0599C163.088 37.3199 163.448 36.3099 163.448 35.0299ZM181.62 39.0499V43.3999H179.01C177.15 43.3999 175.7 42.9499 174.66 42.0499C173.62 41.1299 173.1 39.6399 173.1 37.5799V30.9199H171.06V26.6599H173.1V22.5799H178.23V26.6599H181.59V30.9199H178.23V37.6399C178.23 38.1399 178.35 38.4999 178.59 38.7199C178.83 38.9399 179.23 39.0499 179.79 39.0499H181.62ZM200.257 34.7599C200.257 35.2399 200.227 35.7399 200.167 36.2599H188.557C188.637 37.2999 188.967 38.0999 189.547 38.6599C190.147 39.1999 190.877 39.4699 191.737 39.4699C193.017 39.4699 193.907 38.9299 194.407 37.8499H199.867C199.587 38.9499 199.077 39.9399 198.337 40.8199C197.617 41.6999 196.707 42.3899 195.607 42.8899C194.507 43.3899 193.277 43.6399 191.917 43.6399C190.277 43.6399 188.817 43.2899 187.537 42.5899C186.257 41.8899 185.257 40.8899 184.537 39.5899C183.817 38.2899 183.457 36.7699 183.457 35.0299C183.457 33.2899 183.807 31.7699 184.507 30.4699C185.227 29.1699 186.227 28.1699 187.507 27.4699C188.787 26.7699 190.257 26.4199 191.917 26.4199C193.537 26.4199 194.977 26.7599 196.237 27.4399C197.497 28.1199 198.477 29.0899 199.177 30.3499C199.897 31.6099 200.257 33.0799 200.257 34.7599ZM195.007 33.4099C195.007 32.5299 194.707 31.8299 194.107 31.3099C193.507 30.7899 192.757 30.5299 191.857 30.5299C190.997 30.5299 190.267 30.7799 189.667 31.2799C189.087 31.7799 188.727 32.4899 188.587 33.4099H195.007Z" fill="#2B2B2B"/>
</svg>
