<svg width="34" height="34" viewBox="0 0 34 34" fill="none" xmlns="http://www.w3.org/2000/svg">
<rect x="16.9706" width="24" height="24" rx="12" transform="rotate(45 16.9706 0)" fill="#216B9B"/>
<path d="M21.316 20.7132C21.1988 20.7101 21.0853 20.6606 21.0003 20.5756C20.9153 20.4907 20.8658 20.3771 20.8627 20.26L20.6952 13.825L12.4989 22.0213C12.4181 22.1021 12.3069 22.1457 12.1896 22.1427C12.0724 22.1396 11.9587 22.0901 11.8737 22.0051C11.7886 21.92 11.7391 21.8064 11.7361 21.6891C11.733 21.5719 11.7767 21.4606 11.8575 21.3799L20.0537 13.1836L13.6188 13.0161C13.5042 13.009 13.3945 12.9579 13.3128 12.8734C13.2311 12.7889 13.1838 12.6777 13.1809 12.5632C13.1779 12.4486 13.2195 12.3397 13.2969 12.2594C13.3743 12.179 13.4815 12.1335 13.5959 12.1324L21.0983 12.3272C21.2155 12.3303 21.329 12.3798 21.414 12.4648C21.499 12.5498 21.5485 12.6633 21.5516 12.7805L21.7463 20.2829C21.7493 20.4 21.7057 20.5112 21.625 20.5919C21.5443 20.6726 21.4332 20.7162 21.316 20.7132Z" fill="white"/>
</svg>
