<svg width="100" height="78" viewBox="0 0 100 78" fill="none" xmlns="http://www.w3.org/2000/svg">
<path d="M45.3315 33.2603H37V31.4138C39.8619 31.4138 42.6955 31.3295 45.5198 31.4513C46.9507 31.5076 47.8827 31.0483 48.5323 29.6236H37.0094V27.7678L38.7699 27.6273C38.7699 23.6063 38.7416 19.651 38.7981 15.6957C38.8075 14.8522 38.9675 13.9243 39.3347 13.1745C40.1443 11.5155 42.1589 10.6813 43.9194 11.1125C45.708 11.5436 47.0354 13.1276 47.139 15.0022C47.1766 15.7239 47.1484 16.4456 47.1484 17.1673C47.1484 17.8327 47.1484 18.4982 47.1484 19.5386C48.617 18.4607 49.935 17.5984 51.1212 16.5955C52.2414 15.6395 53.1452 15.4802 54.3031 16.5955C55.4422 17.7015 56.779 18.6107 58.2476 19.7729V16.6893H60.1305C60.4882 19.0137 59.1137 21.9849 62.7099 23.1002L61.5332 24.6655L60.3093 23.9156V27.5241C60.3564 27.5616 60.4411 27.6647 60.5164 27.6741C63.3124 27.6929 62.9829 27.9553 62.9923 30.3453C62.9923 32.0981 62.9735 33.8508 62.9923 35.6035C63.0018 36.4658 62.6911 37 61.7591 37C53.5406 37 45.3221 37 37 37V35.1442C38.8169 35.1442 40.615 35.1442 42.4037 35.1442C43.5522 35.1442 44.525 34.5225 45.3221 33.279L45.3315 33.2603ZM45.2844 27.6366C45.2844 23.4564 45.3032 19.4542 45.2844 15.4427C45.2844 13.9055 44.3336 12.8933 43.0062 12.8652C41.6129 12.837 40.6527 13.8774 40.6338 15.5083C40.615 18.3857 40.6338 21.2632 40.6338 24.1406C40.6338 25.3028 40.6338 26.465 40.6338 27.6366H45.2938H45.2844ZM58.3324 27.6366C58.3324 25.9683 58.37 24.4311 58.3041 22.894C58.2853 22.5004 58.0311 22.0036 57.7204 21.7505C56.1012 20.4009 54.4349 19.1168 52.7121 17.7484C51.0176 18.9949 49.3513 20.204 47.7227 21.4506C47.4685 21.6474 47.1861 22.0036 47.1766 22.2942C47.1296 24.075 47.1484 25.8558 47.1484 27.6273H49.8785C49.8973 27.3179 49.935 27.0743 49.935 26.8306C49.9726 22.5753 49.2289 23.1002 54.0584 23.0627C54.1054 23.0627 54.1619 23.0627 54.209 23.0627C55.1222 23.0252 55.527 23.4845 55.527 24.3749C55.5175 25.4434 55.527 26.5119 55.527 27.6366H58.3229H58.3324ZM54.1337 29.858L54.0113 29.4549C53.0322 29.5862 51.7331 29.3706 51.1306 29.9142C49.4831 31.3951 48.1275 33.204 46.6495 34.8818L46.8848 35.3691C47.958 35.0786 49.2854 35.088 50.0385 34.4412C51.573 33.1009 52.7969 31.4138 54.1431 29.8673L54.1337 29.858ZM52.2791 34.8349L52.4203 35.2004C53.3711 35.0973 54.642 35.3504 55.2163 34.8349C56.892 33.3165 58.2947 31.4888 59.801 29.783L59.575 29.38C58.5583 29.5768 57.2403 29.4549 56.5719 30.0454C54.9809 31.4607 53.6912 33.2134 52.2791 34.8349ZM57.7299 34.9849H60.9966V31.2639L57.7299 34.9849ZM51.9402 24.9654V27.6085H53.5877V24.9654H51.9402Z" fill="#565656"/>
<path d="M20.476 53.796V63H17.59V59.412H14.847V63H11.961V53.796H14.847V57.111H17.59V53.796H20.476ZM25.2585 63.091C24.5218 63.091 23.8588 62.9393 23.2695 62.636C22.6802 62.3327 22.2165 61.8993 21.8785 61.336C21.5492 60.764 21.3845 60.0967 21.3845 59.334C21.3845 58.5713 21.5492 57.9083 21.8785 57.345C22.2165 56.773 22.6802 56.3353 23.2695 56.032C23.8588 55.7287 24.5218 55.577 25.2585 55.577C25.9952 55.577 26.6582 55.7287 27.2475 56.032C27.8368 56.3353 28.2962 56.773 28.6255 57.345C28.9635 57.9083 29.1325 58.5713 29.1325 59.334C29.1325 60.0967 28.9635 60.764 28.6255 61.336C28.2962 61.8993 27.8368 62.3327 27.2475 62.636C26.6582 62.9393 25.9952 63.091 25.2585 63.091ZM25.2585 60.595C25.5272 60.595 25.7525 60.491 25.9345 60.283C26.1165 60.0663 26.2075 59.75 26.2075 59.334C26.2075 58.918 26.1165 58.606 25.9345 58.398C25.7525 58.1813 25.5272 58.073 25.2585 58.073C24.9898 58.073 24.7645 58.1813 24.5825 58.398C24.4005 58.606 24.3095 58.918 24.3095 59.334C24.3095 59.75 24.3962 60.0663 24.5695 60.283C24.7515 60.491 24.9812 60.595 25.2585 60.595ZM34.6022 60.543V63H33.5102C31.4995 63 30.4942 61.999 30.4942 59.997V58.073H29.5842V55.668H30.4942V53.9H33.3802V55.668H34.5762V58.073H33.3802V60.049C33.3802 60.2223 33.4192 60.348 33.4972 60.426C33.5838 60.504 33.7225 60.543 33.9132 60.543H34.6022ZM42.7993 59.269C42.7993 59.4683 42.7863 59.659 42.7603 59.841H38.1193C38.1626 60.4737 38.4269 60.79 38.9123 60.79C39.2243 60.79 39.4496 60.647 39.5883 60.361H42.6433C42.5393 60.881 42.3183 61.349 41.9803 61.765C41.6509 62.1723 41.2306 62.4973 40.7193 62.74C40.2166 62.974 39.6619 63.091 39.0553 63.091C38.3273 63.091 37.6773 62.9393 37.1053 62.636C36.5419 62.3327 36.0999 61.8993 35.7793 61.336C35.4673 60.764 35.3113 60.0967 35.3113 59.334C35.3113 58.5713 35.4673 57.9083 35.7793 57.345C36.0999 56.773 36.5419 56.3353 37.1053 56.032C37.6773 55.7287 38.3273 55.577 39.0553 55.577C39.7833 55.577 40.4289 55.7287 40.9923 56.032C41.5643 56.3267 42.0063 56.7513 42.3183 57.306C42.6389 57.8607 42.7993 58.515 42.7993 59.269ZM39.8743 58.58C39.8743 58.3373 39.7963 58.1553 39.6403 58.034C39.4843 57.904 39.2893 57.839 39.0553 57.839C38.5439 57.839 38.2449 58.086 38.1583 58.58H39.8743ZM46.598 53.38V63H43.712V53.38H46.598ZM54.7384 63L53.0094 59.698H52.9964V63H50.1104V53.796H54.4004C55.1458 53.796 55.7828 53.9303 56.3114 54.199C56.8401 54.459 57.2344 54.8187 57.4944 55.278C57.7631 55.7287 57.8974 56.24 57.8974 56.812C57.8974 57.4273 57.7241 57.9733 57.3774 58.45C57.0394 58.9267 56.5498 59.269 55.9084 59.477L57.9104 63H54.7384ZM52.9964 57.774H54.1404C54.4178 57.774 54.6258 57.7133 54.7644 57.592C54.9031 57.462 54.9724 57.2627 54.9724 56.994C54.9724 56.7513 54.8988 56.5607 54.7514 56.422C54.6128 56.2833 54.4091 56.214 54.1404 56.214H52.9964V57.774ZM62.3034 63.091C61.5668 63.091 60.9038 62.9393 60.3144 62.636C59.7251 62.3327 59.2614 61.8993 58.9234 61.336C58.5941 60.764 58.4294 60.0967 58.4294 59.334C58.4294 58.5713 58.5941 57.9083 58.9234 57.345C59.2614 56.773 59.7251 56.3353 60.3144 56.032C60.9038 55.7287 61.5668 55.577 62.3034 55.577C63.0401 55.577 63.7031 55.7287 64.2924 56.032C64.8818 56.3353 65.3411 56.773 65.6704 57.345C66.0084 57.9083 66.1774 58.5713 66.1774 59.334C66.1774 60.0967 66.0084 60.764 65.6704 61.336C65.3411 61.8993 64.8818 62.3327 64.2924 62.636C63.7031 62.9393 63.0401 63.091 62.3034 63.091ZM62.3034 60.595C62.5721 60.595 62.7974 60.491 62.9794 60.283C63.1614 60.0663 63.2524 59.75 63.2524 59.334C63.2524 58.918 63.1614 58.606 62.9794 58.398C62.7974 58.1813 62.5721 58.073 62.3034 58.073C62.0348 58.073 61.8094 58.1813 61.6274 58.398C61.4454 58.606 61.3544 58.918 61.3544 59.334C61.3544 59.75 61.4411 60.0663 61.6144 60.283C61.7964 60.491 62.0261 60.595 62.3034 60.595ZM70.5681 63.091C69.8314 63.091 69.1684 62.9393 68.5791 62.636C67.9897 62.3327 67.5261 61.8993 67.1881 61.336C66.8587 60.764 66.6941 60.0967 66.6941 59.334C66.6941 58.5713 66.8587 57.9083 67.1881 57.345C67.5261 56.773 67.9897 56.3353 68.5791 56.032C69.1684 55.7287 69.8314 55.577 70.5681 55.577C71.3047 55.577 71.9677 55.7287 72.5571 56.032C73.1464 56.3353 73.6057 56.773 73.9351 57.345C74.2731 57.9083 74.4421 58.5713 74.4421 59.334C74.4421 60.0967 74.2731 60.764 73.9351 61.336C73.6057 61.8993 73.1464 62.3327 72.5571 62.636C71.9677 62.9393 71.3047 63.091 70.5681 63.091ZM70.5681 60.595C70.8367 60.595 71.0621 60.491 71.2441 60.283C71.4261 60.0663 71.5171 59.75 71.5171 59.334C71.5171 58.918 71.4261 58.606 71.2441 58.398C71.0621 58.1813 70.8367 58.073 70.5681 58.073C70.2994 58.073 70.0741 58.1813 69.8921 58.398C69.7101 58.606 69.6191 58.918 69.6191 59.334C69.6191 59.75 69.7057 60.0663 69.8791 60.283C70.0611 60.491 70.2907 60.595 70.5681 60.595ZM85.1377 55.616C86.0737 55.616 86.7974 55.8977 87.3087 56.461C87.8287 57.0243 88.0887 57.787 88.0887 58.749V63H85.2157V59.113C85.2157 58.801 85.1204 58.5583 84.9297 58.385C84.7477 58.203 84.5007 58.112 84.1887 58.112C83.8681 58.112 83.6167 58.203 83.4347 58.385C83.2527 58.5583 83.1617 58.801 83.1617 59.113V63H80.2887V59.113C80.2887 58.801 80.1934 58.5583 80.0027 58.385C79.8207 58.203 79.5737 58.112 79.2617 58.112C78.9411 58.112 78.6897 58.203 78.5077 58.385C78.3257 58.5583 78.2347 58.801 78.2347 59.113V63H75.3487V55.668H78.2347V56.656C78.4427 56.344 78.7244 56.0927 79.0797 55.902C79.4437 55.7113 79.8684 55.616 80.3537 55.616C80.8824 55.616 81.3504 55.733 81.7577 55.967C82.1651 56.1923 82.4901 56.513 82.7327 56.929C83.0014 56.5477 83.3437 56.2357 83.7597 55.993C84.1757 55.7417 84.6351 55.616 85.1377 55.616Z" fill="#565656"/>
</svg>
