<svg width="100" height="78" viewBox="0 0 100 78" fill="none" xmlns="http://www.w3.org/2000/svg">
<path d="M59.2958 38.1237H40.7031C39.316 38.1237 38.1876 36.9953 38.1876 35.6083V22.3735C38.1876 21.8903 38.5793 21.4985 39.0625 21.4985C39.5458 21.4985 39.9375 21.8903 39.9375 22.3735V35.6083C39.9375 36.0304 40.2809 36.3738 40.7031 36.3738H59.2958C59.718 36.3738 60.0614 36.0304 60.0614 35.6083V22.3735C60.0614 21.8903 60.4531 21.4985 60.9363 21.4985C61.4196 21.4985 61.8113 21.8903 61.8113 22.3735V35.6083C61.8113 36.9953 60.6829 38.1237 59.2958 38.1237Z" fill="#565656"/>
<path d="M63.1251 25.4351C62.9011 25.4351 62.6773 25.3497 62.5064 25.1788L51.6248 14.2973C50.7293 13.4018 49.2723 13.4018 48.3767 14.2973L37.4952 25.1789C37.1535 25.5206 36.5995 25.5206 36.2578 25.1789C35.9161 24.8372 35.9161 24.2832 36.2578 23.9415L47.1394 13.0599C48.7172 11.4821 51.2844 11.4821 52.8621 13.0599L63.7437 23.9415C64.0854 24.2832 64.0854 24.8372 63.7437 25.1788C63.5729 25.3497 63.349 25.4351 63.1251 25.4351Z" fill="#565656"/>
<path d="M53.499 38.1233H46.4993C46.0161 38.1233 45.6244 37.7315 45.6244 37.2483V29.4831C45.6244 27.9755 46.851 26.7489 48.3586 26.7489H51.6397C53.1473 26.7489 54.3739 27.9755 54.3739 29.4831V37.2483C54.3739 37.7315 53.9822 38.1233 53.499 38.1233ZM47.3743 36.3734H52.624V29.4831C52.624 28.9404 52.1824 28.4988 51.6397 28.4988H48.3586C47.8159 28.4988 47.3743 28.9404 47.3743 29.4831V36.3734Z" fill="#565656"/>
<path d="M37.8242 53.796V63H34.9382V59.412H32.1952V63H29.3092V53.796H32.1952V57.111H34.9382V53.796H37.8242ZM42.6067 63.091C41.87 63.091 41.207 62.9393 40.6177 62.636C40.0283 62.3327 39.5647 61.8993 39.2267 61.336C38.8973 60.764 38.7327 60.0967 38.7327 59.334C38.7327 58.5713 38.8973 57.9083 39.2267 57.345C39.5647 56.773 40.0283 56.3353 40.6177 56.032C41.207 55.7287 41.87 55.577 42.6067 55.577C43.3433 55.577 44.0063 55.7287 44.5957 56.032C45.185 56.3353 45.6443 56.773 45.9737 57.345C46.3117 57.9083 46.4807 58.5713 46.4807 59.334C46.4807 60.0967 46.3117 60.764 45.9737 61.336C45.6443 61.8993 45.185 62.3327 44.5957 62.636C44.0063 62.9393 43.3433 63.091 42.6067 63.091ZM42.6067 60.595C42.8753 60.595 43.1007 60.491 43.2827 60.283C43.4647 60.0663 43.5557 59.75 43.5557 59.334C43.5557 58.918 43.4647 58.606 43.2827 58.398C43.1007 58.1813 42.8753 58.073 42.6067 58.073C42.338 58.073 42.1127 58.1813 41.9307 58.398C41.7487 58.606 41.6577 58.918 41.6577 59.334C41.6577 59.75 41.7443 60.0663 41.9177 60.283C42.0997 60.491 42.3293 60.595 42.6067 60.595ZM55.1483 55.668V63H52.2623V61.882C52.037 62.2287 51.7336 62.5103 51.3523 62.727C50.9796 62.9437 50.5333 63.052 50.0133 63.052C49.1726 63.052 48.514 62.7703 48.0373 62.207C47.5693 61.6437 47.3353 60.881 47.3353 59.919V55.668H50.2083V59.555C50.2083 59.9017 50.2993 60.179 50.4813 60.387C50.672 60.5863 50.9233 60.686 51.2353 60.686C51.556 60.686 51.8073 60.5863 51.9893 60.387C52.1713 60.179 52.2623 59.9017 52.2623 59.555V55.668H55.1483ZM59.7148 63.091C59.0214 63.091 58.4061 62.9783 57.8688 62.753C57.3401 62.5277 56.9198 62.2157 56.6078 61.817C56.2958 61.4183 56.1181 60.9677 56.0748 60.465H58.8438C58.8784 60.6817 58.9694 60.842 59.1168 60.946C59.2728 61.05 59.4678 61.102 59.7018 61.102C59.8491 61.102 59.9661 61.0717 60.0528 61.011C60.1394 60.9417 60.1828 60.8593 60.1828 60.764C60.1828 60.5993 60.0918 60.4823 59.9098 60.413C59.7278 60.3437 59.4201 60.2657 58.9868 60.179C58.4581 60.075 58.0204 59.9623 57.6738 59.841C57.3358 59.7197 57.0368 59.5117 56.7768 59.217C56.5254 58.9223 56.3998 58.515 56.3998 57.995C56.3998 57.5443 56.5168 57.137 56.7508 56.773C56.9934 56.4003 57.3488 56.11 57.8168 55.902C58.2848 55.6853 58.8524 55.577 59.5198 55.577C60.5078 55.577 61.2791 55.8197 61.8338 56.305C62.3971 56.7903 62.7351 57.423 62.8478 58.203H60.2868C60.2434 58.0037 60.1524 57.852 60.0138 57.748C59.8751 57.6353 59.6888 57.579 59.4548 57.579C59.3074 57.579 59.1948 57.6093 59.1168 57.67C59.0388 57.722 58.9998 57.8043 58.9998 57.917C58.9998 58.0643 59.0908 58.177 59.2728 58.255C59.4548 58.3243 59.7451 58.398 60.1438 58.476C60.6724 58.58 61.1188 58.697 61.4828 58.827C61.8468 58.957 62.1631 59.1823 62.4318 59.503C62.7004 59.815 62.8348 60.2483 62.8348 60.803C62.8348 61.2363 62.7091 61.6263 62.4578 61.973C62.2064 62.3197 61.8424 62.5927 61.3658 62.792C60.8978 62.9913 60.3474 63.091 59.7148 63.091ZM71.0781 59.269C71.0781 59.4683 71.0651 59.659 71.0391 59.841H66.3981C66.4414 60.4737 66.7057 60.79 67.1911 60.79C67.5031 60.79 67.7284 60.647 67.8671 60.361H70.9221C70.8181 60.881 70.5971 61.349 70.2591 61.765C69.9297 62.1723 69.5094 62.4973 68.9981 62.74C68.4954 62.974 67.9407 63.091 67.3341 63.091C66.6061 63.091 65.9561 62.9393 65.3841 62.636C64.8207 62.3327 64.3787 61.8993 64.0581 61.336C63.7461 60.764 63.5901 60.0967 63.5901 59.334C63.5901 58.5713 63.7461 57.9083 64.0581 57.345C64.3787 56.773 64.8207 56.3353 65.3841 56.032C65.9561 55.7287 66.6061 55.577 67.3341 55.577C68.0621 55.577 68.7077 55.7287 69.2711 56.032C69.8431 56.3267 70.2851 56.7513 70.5971 57.306C70.9177 57.8607 71.0781 58.515 71.0781 59.269ZM68.1531 58.58C68.1531 58.3373 68.0751 58.1553 67.9191 58.034C67.7631 57.904 67.5681 57.839 67.3341 57.839C66.8227 57.839 66.5237 58.086 66.4371 58.58H68.1531Z" fill="#565656"/>
</svg>
