<svg width="20" height="21" viewBox="0 0 20 21" fill="none" xmlns="http://www.w3.org/2000/svg">
<path d="M8.63633 2.89453C7.42268 2.89453 6.23628 3.25442 5.22717 3.92869C4.21806 4.60296 3.43155 5.56132 2.9671 6.68259C2.50266 7.80386 2.38114 9.03767 2.61791 10.228C2.85468 11.4183 3.43911 12.5117 4.29729 13.3699C5.15547 14.2281 6.24886 14.8125 7.43919 15.0493C8.62952 15.2861 9.86334 15.1645 10.9846 14.7001C12.1059 14.2356 13.0642 13.4491 13.7385 12.44C14.4128 11.4309 14.7727 10.2445 14.7727 9.03086C14.7726 7.40344 14.126 5.8427 12.9753 4.69193C11.8245 3.54117 10.2638 2.89463 8.63633 2.89453Z" stroke="#2B2B2B" stroke-width="1.5" stroke-miterlimit="10"/>
<path d="M13.2145 13.609L17.5 17.8945" stroke="#2B2B2B" stroke-width="1.5" stroke-miterlimit="10" stroke-linecap="round"/>
</svg>
