<svg width="24" height="25" viewBox="0 0 24 25" fill="none" xmlns="http://www.w3.org/2000/svg">
<path d="M18.1198 22.0978C17.5198 22.0978 16.9098 21.9578 16.3298 21.6678L13.0898 20.0478C12.4098 19.7078 11.5898 19.7078 10.8998 20.0478L7.65985 21.6678C6.09985 22.4478 4.29985 22.1478 3.07985 20.8978C1.85985 19.6478 1.58985 17.8478 2.40985 16.2978L8.50985 4.70778C9.18985 3.40778 10.5298 2.59778 11.9998 2.59778C13.4698 2.59778 14.8098 3.40778 15.4898 4.70778L21.5898 16.2978C22.3998 17.8478 22.1398 19.6478 20.9198 20.8978C20.1498 21.6878 19.1498 22.0978 18.1198 22.0978ZM11.9998 18.2878C12.6098 18.2878 13.2098 18.4278 13.7598 18.6978L16.9998 20.3178C18.1698 20.9078 19.2398 20.4578 19.8398 19.8378C20.4398 19.2178 20.8698 18.1478 20.2598 16.9878L14.1598 5.39778C13.7298 4.58778 12.9198 4.09778 11.9998 4.09778C11.0798 4.09778 10.2698 4.58778 9.83985 5.40778L3.73985 16.9978C3.12985 18.1578 3.54985 19.2378 4.15985 19.8478C4.76985 20.4578 5.82985 20.9078 6.99985 20.3278L10.2398 18.7078C10.7898 18.4278 11.3898 18.2878 11.9998 18.2878Z" fill="white"/>
</svg>
