<svg width="35" height="36" viewBox="0 0 35 36" fill="none" xmlns="http://www.w3.org/2000/svg">
<path d="M2.1875 29.7864C2.1875 29.9024 2.23359 30.0137 2.31564 30.0957C2.39769 30.1778 2.50897 30.2239 2.625 30.2239H4.52463C5.13575 30.2232 5.72163 29.9801 6.15372 29.5479C6.5858 29.1157 6.8288 28.5298 6.82937 27.9187V27.9143C7.83956 27.9721 8.84231 28.2171 9.75363 28.6546L16.6442 31.9629C17.1054 32.1843 17.6024 32.2954 18.1003 32.2954C18.5786 32.2951 19.0514 32.1928 19.4871 31.9953L32.3628 26.1669C32.5666 26.0615 32.7189 25.8742 32.781 25.6533C32.8117 25.5437 32.8197 25.4289 32.8045 25.3161C32.7893 25.2032 32.7512 25.0947 32.6926 24.9971C31.7043 23.3621 29.8445 22.4963 27.9764 22.7903L21.6195 23.545C21.7179 23.2828 21.7686 23.0051 21.7691 22.7251C21.7684 22.0985 21.5192 21.4978 21.0761 21.0547C20.6331 20.6117 20.0323 20.3624 19.4058 20.3617H16.0269L16.0151 20.3495C15.3913 19.7223 14.6493 19.225 13.832 18.8864C13.0147 18.5479 12.1384 18.3748 11.2538 18.3772H6.82937V18.1147C6.8288 17.5036 6.5858 16.9177 6.15372 16.4855C5.72163 16.0534 5.13575 15.8103 4.52463 15.8096H2.625C2.50897 15.8096 2.39769 15.8556 2.31564 15.9377C2.23359 16.0197 2.1875 16.131 2.1875 16.2471V29.7864ZM11.2538 19.2522C12.8183 19.2522 14.2901 19.8617 15.3965 20.9681L15.5365 21.1081C15.5771 21.1488 15.6253 21.1811 15.6784 21.2032C15.7314 21.2253 15.7883 21.2367 15.8458 21.2367H19.4058C20.2265 21.2367 20.8941 21.9044 20.8941 22.7251C20.8941 23.5459 20.2265 24.2131 19.4058 24.2131H11.7027C11.5867 24.2131 11.4754 24.2591 11.3933 24.3412C11.3113 24.4232 11.2652 24.5345 11.2652 24.6506C11.2652 24.7666 11.3113 24.8779 11.3933 24.9599C11.4754 25.042 11.5867 25.0881 11.7027 25.0881H19.4058C19.9759 25.088 20.5266 24.8807 20.9554 24.5049L28.0954 23.6574C28.8354 23.5392 29.5939 23.6418 30.276 23.9522C30.9581 24.2627 31.5336 24.7673 31.9305 25.4031L19.1266 31.1982C18.7955 31.3483 18.4355 31.424 18.072 31.4198C17.7085 31.4157 17.3503 31.3318 17.0227 31.1741L10.1321 27.8657C9.09726 27.371 7.97483 27.0858 6.82937 27.0266V19.2527L11.2538 19.2522ZM3.0625 16.6846H4.52463C4.90375 16.685 5.26721 16.8359 5.53525 17.104C5.8033 17.3721 5.95403 17.7356 5.95437 18.1147V27.9187C5.95403 28.2978 5.8033 28.6613 5.53525 28.9294C5.26721 29.1976 4.90375 29.3484 4.52463 29.3489H3.0625V16.6846ZM31.9375 4.29456H12.6875C12.2049 4.29456 11.8125 4.68699 11.8125 5.16956V16.5446C11.8125 17.0271 12.2049 17.4196 12.6875 17.4196H31.9375C32.4201 17.4196 32.8125 17.0271 32.8125 16.5446V5.16956C32.8125 4.68699 32.4201 4.29456 31.9375 4.29456ZM31.9375 7.87024C31.2552 7.77428 30.6226 7.45886 30.1354 6.97164C29.6482 6.48442 29.3328 5.85187 29.2368 5.16956H31.9375V7.87024ZM15.3882 5.16956C15.2922 5.85187 14.9768 6.48442 14.4896 6.97164C14.0024 7.45886 13.3698 7.77428 12.6875 7.87024V5.16956H15.3882ZM12.6875 13.8439C13.3698 13.9398 14.0024 14.2553 14.4896 14.7425C14.9768 15.2297 15.2922 15.8622 15.3882 16.5446H12.6875V13.8439ZM16.2732 16.5446C16.1723 15.6283 15.762 14.7737 15.1102 14.1219C14.4583 13.47 13.6038 13.0598 12.6875 12.9588V8.75531C13.6038 8.65431 14.4583 8.24407 15.1102 7.59223C15.762 6.94038 16.1723 6.08586 16.2732 5.16956H28.3517C28.4527 6.08586 28.863 6.94038 29.5148 7.59223C30.1667 8.24407 31.0212 8.65431 31.9375 8.75531V12.9588C31.0212 13.0598 30.1667 13.47 29.5148 14.1219C28.863 14.7737 28.4527 15.6283 28.3517 16.5446H16.2732ZM29.2368 16.5446C29.3328 15.8622 29.6482 15.2297 30.1354 14.7425C30.6226 14.2553 31.2552 13.9398 31.9375 13.8439V16.5446H29.2368Z" fill="#2B2B2B"/>
<path d="M22.3125 8.05049C23.0361 8.05049 23.625 8.58206 23.625 9.23481C23.625 9.35084 23.6711 9.46212 23.7531 9.54417C23.8352 9.62621 23.9465 9.67231 24.0625 9.67231C24.1785 9.67231 24.2898 9.62621 24.3719 9.54417C24.4539 9.46212 24.5 9.35084 24.5 9.23481C24.5 8.24037 23.7475 7.40824 22.75 7.21706V6.91956C22.75 6.80352 22.7039 6.69224 22.6219 6.6102C22.5398 6.52815 22.4285 6.48206 22.3125 6.48206C22.1965 6.48206 22.0852 6.52815 22.0031 6.6102C21.9211 6.69224 21.875 6.80352 21.875 6.91956V7.21706C20.8775 7.40824 20.125 8.24037 20.125 9.23481C20.125 10.3706 21.1063 11.2946 22.3125 11.2946C23.0361 11.2946 23.625 11.8261 23.625 12.4793C23.625 13.1321 23.0361 13.6636 22.3125 13.6636C21.5889 13.6636 21 13.1321 21 12.4793C21 12.3633 20.9539 12.252 20.8719 12.1699C20.7898 12.0879 20.6785 12.0418 20.5625 12.0418C20.4465 12.0418 20.3352 12.0879 20.2531 12.1699C20.1711 12.252 20.125 12.3633 20.125 12.4793C20.125 13.4737 20.8775 14.3059 21.875 14.4971V14.7946C21.875 14.9106 21.9211 15.0219 22.0031 15.1039C22.0852 15.186 22.1965 15.2321 22.3125 15.2321C22.4285 15.2321 22.5398 15.186 22.6219 15.1039C22.7039 15.0219 22.75 14.9106 22.75 14.7946V14.4971C23.7475 14.3059 24.5 13.4737 24.5 12.4793C24.5 11.3436 23.5187 10.4196 22.3125 10.4196C21.5889 10.4196 21 9.88799 21 9.23481C21 8.58206 21.5889 8.05049 22.3125 8.05049ZM28.4375 9.54456H27.125C27.009 9.54456 26.8977 9.59065 26.8156 9.6727C26.7336 9.75474 26.6875 9.86602 26.6875 9.98206C26.6875 10.0981 26.7336 10.2094 26.8156 10.2914C26.8977 10.3735 27.009 10.4196 27.125 10.4196H28.4375C28.5535 10.4196 28.6648 10.3735 28.7469 10.2914C28.8289 10.2094 28.875 10.0981 28.875 9.98206C28.875 9.86602 28.8289 9.75474 28.7469 9.6727C28.6648 9.59065 28.5535 9.54456 28.4375 9.54456ZM28.4375 11.2946H27.125C27.009 11.2946 26.8977 11.3406 26.8156 11.4227C26.7336 11.5047 26.6875 11.616 26.6875 11.7321C26.6875 11.8481 26.7336 11.9594 26.8156 12.0414C26.8977 12.1235 27.009 12.1696 27.125 12.1696H28.4375C28.5535 12.1696 28.6648 12.1235 28.7469 12.0414C28.8289 11.9594 28.875 11.8481 28.875 11.7321C28.875 11.616 28.8289 11.5047 28.7469 11.4227C28.6648 11.3406 28.5535 11.2946 28.4375 11.2946ZM17.5 9.54456H16.1875C16.0715 9.54456 15.9602 9.59065 15.8781 9.6727C15.7961 9.75474 15.75 9.86602 15.75 9.98206C15.75 10.0981 15.7961 10.2094 15.8781 10.2914C15.9602 10.3735 16.0715 10.4196 16.1875 10.4196H17.5C17.616 10.4196 17.7273 10.3735 17.8094 10.2914C17.8914 10.2094 17.9375 10.0981 17.9375 9.98206C17.9375 9.86602 17.8914 9.75474 17.8094 9.6727C17.7273 9.59065 17.616 9.54456 17.5 9.54456ZM17.5 11.2946H16.1875C16.0715 11.2946 15.9602 11.3406 15.8781 11.4227C15.7961 11.5047 15.75 11.616 15.75 11.7321C15.75 11.8481 15.7961 11.9594 15.8781 12.0414C15.9602 12.1235 16.0715 12.1696 16.1875 12.1696H17.5C17.616 12.1696 17.7273 12.1235 17.8094 12.0414C17.8914 11.9594 17.9375 11.8481 17.9375 11.7321C17.9375 11.616 17.8914 11.5047 17.8094 11.4227C17.7273 11.3406 17.616 11.2946 17.5 11.2946Z" fill="#2B2B2B"/>
</svg>
