<svg width="100" height="78" viewBox="0 0 100 78" fill="none" xmlns="http://www.w3.org/2000/svg">
<path d="M39.0436 25.6942L38.051 26.5187L37 25.385C40.8787 21.3914 44.6073 17.4922 48.4026 13.6617C49.3953 12.6655 50.7716 12.8286 51.8476 13.9194C53.8746 15.972 55.8765 18.059 57.8951 20.1203C58.2037 20.4381 58.5374 20.7387 59.0712 21.2368V14.9414H60.7395C60.7395 16.745 60.8813 18.5915 60.7061 20.3951C60.4976 22.4993 61.1899 24.0452 63 25.2304L61.8823 26.4672L60.9731 25.7458C60.898 25.7887 60.7895 25.823 60.7812 25.8746C60.5727 26.931 59.9888 27.9788 60.7228 29.0609C60.7645 29.1296 60.7478 29.2499 60.7395 29.3357C60.531 31.0105 60.5059 32.6681 60.6894 34.3686C60.8563 35.8974 59.7218 36.9623 58.2204 36.9709C52.7568 37.0053 47.2932 37.0139 41.8296 36.9709C39.7693 36.9537 38.7183 35.0213 39.3523 32.754C39.5107 32.1957 39.3773 31.5602 39.3523 30.959C39.3356 30.3062 39.2522 29.6449 39.2688 28.9922C39.2939 27.9186 39.3856 26.8451 39.444 25.7715L39.0353 25.6942H39.0436ZM49.9875 24.2256C47.3683 24.2256 44.7575 24.1912 42.1383 24.2599C41.7212 24.2685 41.0372 24.7237 40.9705 25.0673C40.8787 25.5568 41.2124 26.5874 41.4376 26.6046C42.9724 26.7334 44.7575 27.1714 46.0337 26.5531C48.3526 25.4366 50.7215 25.6685 52.8402 26.1494C54.4501 26.5101 56.0099 26.6475 57.6031 26.7678C58.5124 26.8365 59.1129 26.596 59.1046 25.4709C59.0962 24.3201 58.4373 24.1998 57.5614 24.2084C55.034 24.2342 52.5149 24.2084 49.9875 24.217V24.2256ZM47.6185 27.6868V35.2189H52.3981V27.6868H47.6185ZM42.3385 22.4306H57.6615C56.5271 20.6785 55.2175 19.6994 53.0905 19.9313C51.0969 20.146 49.0449 20.1375 47.0513 19.9313C44.9076 19.708 43.4729 20.5583 42.3385 22.4306ZM46.3507 17.8959L46.5842 18.1621H53.9413C52.6984 16.9855 51.7559 16.1009 50.83 15.1991C50.2544 14.6408 49.7206 14.6494 49.145 15.1991C48.2191 16.1009 47.2849 16.9855 46.3507 17.8873V17.8959ZM45.7918 28.4941C44.4155 28.4941 43.0975 28.4168 41.7963 28.5456C41.4626 28.58 40.9455 29.2842 40.9621 29.6707C40.9788 30.1345 41.4376 30.9246 41.7629 30.9676C43.0975 31.1136 44.4572 31.0277 45.7918 31.0277V28.4941ZM54.1915 31.0277C55.5595 31.0277 56.8357 31.1222 58.0869 30.9676C58.4623 30.9246 58.9294 30.2547 59.0462 29.7909C59.2297 29.0781 58.9044 28.4855 58.0452 28.4855C56.7773 28.4855 55.5095 28.4855 54.1832 28.4855V31.0277H54.1915ZM45.7918 32.7454C44.4238 32.7454 43.1476 32.6509 41.8964 32.8055C41.521 32.8484 41.0539 33.5183 40.9371 33.9821C40.7536 34.695 41.0789 35.2876 41.9381 35.2876C43.206 35.2876 44.4739 35.2876 45.8001 35.2876V32.7454H45.7918ZM54.1915 35.279C55.5679 35.279 56.8858 35.3563 58.187 35.2275C58.5207 35.1931 59.0379 34.4888 59.0212 34.111C59.0045 33.6472 58.5457 32.857 58.2204 32.8141C56.8858 32.6681 55.5261 32.754 54.1915 32.754V35.2876V35.279Z" fill="#565656"/>
<path d="M49.0681 56.955C49.0681 57.5357 48.9338 58.0643 48.6651 58.541C48.3964 59.009 47.9978 59.3817 47.4691 59.659C46.9491 59.9363 46.3164 60.075 45.5711 60.075H44.4271V63H41.5411V53.796H45.5711C46.6978 53.796 47.5601 54.082 48.1581 54.654C48.7648 55.226 49.0681 55.993 49.0681 56.955ZM45.2461 57.8C45.8441 57.8 46.1431 57.5183 46.1431 56.955C46.1431 56.3917 45.8441 56.11 45.2461 56.11H44.4271V57.8H45.2461ZM55.6255 56.942C55.5128 56.76 55.3525 56.6213 55.1445 56.526C54.9365 56.422 54.6852 56.37 54.3905 56.37C53.8358 56.37 53.4068 56.552 53.1035 56.916C52.8002 57.2713 52.6485 57.761 52.6485 58.385C52.6485 59.1043 52.8175 59.6417 53.1555 59.997C53.4935 60.3523 54.0135 60.53 54.7155 60.53C55.3828 60.53 55.9202 60.2613 56.3275 59.724H54.0265V57.683H58.7195V60.569C58.3208 61.2537 57.7705 61.843 57.0685 62.337C56.3665 62.8223 55.4782 63.065 54.4035 63.065C53.4502 63.065 52.6182 62.87 51.9075 62.48C51.2055 62.0813 50.6638 61.5267 50.2825 60.816C49.9098 60.1053 49.7235 59.295 49.7235 58.385C49.7235 57.475 49.9098 56.6647 50.2825 55.954C50.6638 55.2433 51.2055 54.693 51.9075 54.303C52.6095 53.9043 53.4328 53.705 54.3775 53.705C55.5822 53.705 56.5615 53.9953 57.3155 54.576C58.0782 55.1567 58.5288 55.9453 58.6675 56.942H55.6255Z" fill="#565656"/>
</svg>
