<svg width="35" height="36" viewBox="0 0 35 36" fill="none" xmlns="http://www.w3.org/2000/svg">
<path d="M17.5001 32.0112H6.65006C6.02784 32.0112 5.52229 31.7973 5.1334 31.3695C4.74451 30.9418 4.55007 30.4556 4.55007 29.9112V15.3279L15.5167 5.64454C16.0612 5.17787 16.7223 4.94454 17.5001 4.94454C18.2778 4.94454 18.939 5.17787 19.4834 5.64454L33.3667 17.8945C33.5223 18.0501 33.7167 18.1084 33.9501 18.0695C34.1834 18.0306 34.3778 17.9334 34.5334 17.7779C34.689 17.6223 34.7473 17.4279 34.7084 17.1945C34.6695 16.9612 34.5723 16.7668 34.4167 16.6112L32.0834 14.6279V6.34454C32.0834 5.17787 31.6556 4.16676 30.8001 3.3112C29.9445 2.45565 28.9334 2.04732 27.7667 2.0862C26.6001 2.12509 25.6084 2.55287 24.7917 3.36954C23.9751 4.1862 23.5278 5.17787 23.4501 6.34454V7.04454L20.5334 4.47787C19.6778 3.70009 18.6667 3.3112 17.5001 3.3112C16.3334 3.3112 15.3223 3.70009 14.4667 4.47787L0.583398 16.6112C0.350065 16.7668 0.233398 16.9612 0.233398 17.1945C0.233398 17.4279 0.311176 17.6223 0.466732 17.7779C0.622287 17.9334 0.816732 18.0306 1.05007 18.0695C1.2834 18.1084 1.47784 18.0501 1.6334 17.8945L2.91673 16.8445V29.9112C2.91673 30.9223 3.28618 31.7973 4.02507 32.5362C4.76395 33.2751 5.63895 33.6445 6.65006 33.6445H17.5001C17.7334 33.6445 17.9278 33.5668 18.0834 33.4112C18.239 33.2556 18.3167 33.0612 18.3167 32.8279C18.3167 32.5945 18.239 32.4001 18.0834 32.2445C17.9278 32.089 17.7334 32.0112 17.5001 32.0112ZM25.0834 6.34454C25.1612 5.56676 25.4528 4.92509 25.9584 4.41954C26.464 3.91398 27.0862 3.68065 27.8251 3.71954C28.564 3.75843 29.1862 4.03065 29.6917 4.53621C30.1973 5.04176 30.4501 5.64454 30.4501 6.34454V13.1112L25.0834 8.44454V6.34454ZM17.5001 10.3112C16.4112 10.3112 15.4778 10.7001 14.7001 11.4779C13.9223 12.2556 13.5334 13.189 13.5334 14.2779C13.5334 15.3668 13.9223 16.3001 14.7001 17.0779C15.4778 17.8556 16.4112 18.2445 17.5001 18.2445C18.589 18.2445 19.5223 17.8556 20.3001 17.0779C21.0778 16.3001 21.4667 15.3668 21.4667 14.2779C21.4667 13.189 21.0778 12.2556 20.3001 11.4779C19.5223 10.7001 18.589 10.3112 17.5001 10.3112ZM19.8334 14.2779C19.8334 14.9779 19.6001 15.5418 19.1334 15.9695C18.6667 16.3973 18.1223 16.6112 17.5001 16.6112C16.8778 16.6112 16.3334 16.3973 15.8667 15.9695C15.4001 15.5418 15.1667 14.9973 15.1667 14.3362C15.1667 13.6751 15.4001 13.1112 15.8667 12.6445C16.3334 12.1779 16.8778 11.9445 17.5001 11.9445C18.1223 11.9445 18.6667 12.1779 19.1334 12.6445C19.6001 13.1112 19.8334 13.6556 19.8334 14.2779ZM34.5334 32.3612L31.7334 29.4445C32.4334 28.4334 32.7834 27.3056 32.7834 26.0612C32.7834 24.5056 32.2195 23.1834 31.0917 22.0945C29.964 21.0056 28.6223 20.4612 27.0667 20.4612C25.5112 20.4612 24.1695 21.0056 23.0417 22.0945C21.914 23.1834 21.3501 24.5251 21.3501 26.1195C21.3501 27.714 21.914 29.0556 23.0417 30.1445C24.1695 31.2334 25.5112 31.7779 27.0667 31.7779C28.389 31.7779 29.5556 31.389 30.5667 30.6112L33.2501 33.4112C33.4056 33.5668 33.6001 33.664 33.8334 33.7029C34.0667 33.7418 34.2806 33.6834 34.4751 33.5279C34.6695 33.3723 34.7667 33.1779 34.7667 32.9445C34.7667 32.7112 34.689 32.5168 34.5334 32.3612ZM27.0667 30.1445C25.9778 30.1445 25.0251 29.7556 24.2084 28.9779C23.3917 28.2001 22.9834 27.2473 22.9834 26.1195C22.9834 24.9918 23.3917 24.039 24.2084 23.2612C25.0251 22.4834 25.9973 22.0945 27.1251 22.0945C28.2528 22.0945 29.2056 22.4834 29.9834 23.2612C30.7612 24.039 31.1501 24.9918 31.1501 26.1195C31.1501 27.2473 30.7612 28.2001 29.9834 28.9779C29.2056 29.7556 28.2334 30.1445 27.0667 30.1445Z" fill="#2B2B2B"/>
</svg>
