<svg width="190" height="24" viewBox="0 0 190 24" fill="none" xmlns="http://www.w3.org/2000/svg">
<path d="M5.9 1.94V14.54C5.9 15.8 6.21 16.77 6.83 17.45C7.45 18.13 8.36 18.47 9.56 18.47C10.76 18.47 11.68 18.13 12.32 17.45C12.96 16.77 13.28 15.8 13.28 14.54V1.94H18.41V14.51C18.41 16.39 18.01 17.98 17.21 19.28C16.41 20.58 15.33 21.56 13.97 22.22C12.63 22.88 11.13 23.21 9.47 23.21C7.81 23.21 6.32 22.89 5 22.25C3.7 21.59 2.67 20.61 1.91 19.31C1.15 17.99 0.77 16.39 0.77 14.51V1.94H5.9ZM27.1423 9.05C27.7423 8.13 28.4923 7.41 29.3923 6.89C30.2923 6.35 31.2923 6.08 32.3923 6.08V11.51H30.9823C29.7023 11.51 28.7423 11.79 28.1023 12.35C27.4623 12.89 27.1423 13.85 27.1423 15.23V23H22.0123V6.26H27.1423V9.05ZM39.9744 8.63C40.4544 7.85 41.1444 7.22 42.0444 6.74C42.9444 6.26 43.9744 6.02 45.1344 6.02C46.5144 6.02 47.7644 6.37 48.8844 7.07C50.0044 7.77 50.8844 8.77 51.5244 10.07C52.1844 11.37 52.5144 12.88 52.5144 14.6C52.5144 16.32 52.1844 17.84 51.5244 19.16C50.8844 20.46 50.0044 21.47 48.8844 22.19C47.7644 22.89 46.5144 23.24 45.1344 23.24C43.9544 23.24 42.9244 23.01 42.0444 22.55C41.1644 22.07 40.4744 21.44 39.9744 20.66V23H34.8444V0.8H39.9744V8.63ZM47.2944 14.6C47.2944 13.32 46.9344 12.32 46.2144 11.6C45.5144 10.86 44.6444 10.49 43.6044 10.49C42.5844 10.49 41.7144 10.86 40.9944 11.6C40.2944 12.34 39.9444 13.35 39.9444 14.63C39.9444 15.91 40.2944 16.92 40.9944 17.66C41.7144 18.4 42.5844 18.77 43.6044 18.77C44.6244 18.77 45.4944 18.4 46.2144 17.66C46.9344 16.9 47.2944 15.88 47.2944 14.6ZM54.1857 14.6C54.1857 12.88 54.5057 11.37 55.1457 10.07C55.8057 8.77 56.6957 7.77 57.8157 7.07C58.9357 6.37 60.1857 6.02 61.5657 6.02C62.7457 6.02 63.7757 6.26 64.6557 6.74C65.5557 7.22 66.2457 7.85 66.7257 8.63V6.26H71.8557V23H66.7257V20.63C66.2257 21.41 65.5257 22.04 64.6257 22.52C63.7457 23 62.7157 23.24 61.5357 23.24C60.1757 23.24 58.9357 22.89 57.8157 22.19C56.6957 21.47 55.8057 20.46 55.1457 19.16C54.5057 17.84 54.1857 16.32 54.1857 14.6ZM66.7257 14.63C66.7257 13.35 66.3657 12.34 65.6457 11.6C64.9457 10.86 64.0857 10.49 63.0657 10.49C62.0457 10.49 61.1757 10.86 60.4557 11.6C59.7557 12.32 59.4057 13.32 59.4057 14.6C59.4057 15.88 59.7557 16.9 60.4557 17.66C61.1757 18.4 62.0457 18.77 63.0657 18.77C64.0857 18.77 64.9457 18.4 65.6457 17.66C66.3657 16.92 66.7257 15.91 66.7257 14.63ZM85.767 6.08C87.727 6.08 89.287 6.72 90.447 8C91.627 9.26 92.217 11 92.217 13.22V23H87.117V13.91C87.117 12.79 86.827 11.92 86.247 11.3C85.667 10.68 84.887 10.37 83.907 10.37C82.927 10.37 82.147 10.68 81.567 11.3C80.987 11.92 80.697 12.79 80.697 13.91V23H75.567V6.26H80.697V8.48C81.217 7.74 81.917 7.16 82.797 6.74C83.677 6.3 84.667 6.08 85.767 6.08Z" fill="#216B9B"/>
<path d="M100.912 6.05V10.31H107.782V14.27H100.912V18.89H108.682V23H95.7819V1.94H108.682V6.05H100.912ZM118.822 23.24C117.362 23.24 116.062 22.99 114.922 22.49C113.782 21.99 112.882 21.31 112.222 20.45C111.562 19.57 111.192 18.59 111.112 17.51H116.182C116.242 18.09 116.512 18.56 116.992 18.92C117.472 19.28 118.062 19.46 118.762 19.46C119.402 19.46 119.892 19.34 120.232 19.1C120.592 18.84 120.772 18.51 120.772 18.11C120.772 17.63 120.522 17.28 120.022 17.06C119.522 16.82 118.712 16.56 117.592 16.28C116.392 16 115.392 15.71 114.592 15.41C113.792 15.09 113.102 14.6 112.522 13.94C111.942 13.26 111.652 12.35 111.652 11.21C111.652 10.25 111.912 9.38 112.432 8.6C112.972 7.8 113.752 7.17 114.772 6.71C115.812 6.25 117.042 6.02 118.462 6.02C120.562 6.02 122.212 6.54 123.412 7.58C124.632 8.62 125.332 10 125.512 11.72H120.772C120.692 11.14 120.432 10.68 119.992 10.34C119.572 10 119.012 9.83 118.312 9.83C117.712 9.83 117.252 9.95 116.932 10.19C116.612 10.41 116.452 10.72 116.452 11.12C116.452 11.6 116.702 11.96 117.202 12.2C117.722 12.44 118.522 12.68 119.602 12.92C120.842 13.24 121.852 13.56 122.632 13.88C123.412 14.18 124.092 14.68 124.672 15.38C125.272 16.06 125.582 16.98 125.602 18.14C125.602 19.12 125.322 20 124.762 20.78C124.222 21.54 123.432 22.14 122.392 22.58C121.372 23.02 120.182 23.24 118.822 23.24ZM138.071 18.65V23H135.461C133.601 23 132.151 22.55 131.111 21.65C130.071 20.73 129.551 19.24 129.551 17.18V10.52H127.511V6.26H129.551V2.18H134.681V6.26H138.041V10.52H134.681V17.24C134.681 17.74 134.801 18.1 135.041 18.32C135.281 18.54 135.681 18.65 136.241 18.65H138.071ZM139.908 14.6C139.908 12.88 140.228 11.37 140.868 10.07C141.528 8.77 142.418 7.77 143.538 7.07C144.658 6.37 145.908 6.02 147.288 6.02C148.468 6.02 149.498 6.26 150.378 6.74C151.278 7.22 151.968 7.85 152.448 8.63V6.26H157.578V23H152.448V20.63C151.948 21.41 151.248 22.04 150.348 22.52C149.468 23 148.438 23.24 147.258 23.24C145.898 23.24 144.658 22.89 143.538 22.19C142.418 21.47 141.528 20.46 140.868 19.16C140.228 17.84 139.908 16.32 139.908 14.6ZM152.448 14.63C152.448 13.35 152.088 12.34 151.368 11.6C150.668 10.86 149.808 10.49 148.788 10.49C147.768 10.49 146.898 10.86 146.178 11.6C145.478 12.32 145.128 13.32 145.128 14.6C145.128 15.88 145.478 16.9 146.178 17.66C146.898 18.4 147.768 18.77 148.788 18.77C149.808 18.77 150.668 18.4 151.368 17.66C152.088 16.92 152.448 15.91 152.448 14.63ZM170.62 18.65V23H168.01C166.15 23 164.7 22.55 163.66 21.65C162.62 20.73 162.1 19.24 162.1 17.18V10.52H160.06V6.26H162.1V2.18H167.23V6.26H170.59V10.52H167.23V17.24C167.23 17.74 167.35 18.1 167.59 18.32C167.83 18.54 168.23 18.65 168.79 18.65H170.62ZM189.257 14.36C189.257 14.84 189.227 15.34 189.167 15.86H177.557C177.637 16.9 177.967 17.7 178.547 18.26C179.147 18.8 179.877 19.07 180.737 19.07C182.017 19.07 182.907 18.53 183.407 17.45H188.867C188.587 18.55 188.077 19.54 187.337 20.42C186.617 21.3 185.707 21.99 184.607 22.49C183.507 22.99 182.277 23.24 180.917 23.24C179.277 23.24 177.817 22.89 176.537 22.19C175.257 21.49 174.257 20.49 173.537 19.19C172.817 17.89 172.457 16.37 172.457 14.63C172.457 12.89 172.807 11.37 173.507 10.07C174.227 8.77 175.227 7.77 176.507 7.07C177.787 6.37 179.257 6.02 180.917 6.02C182.537 6.02 183.977 6.36 185.237 7.04C186.497 7.72 187.477 8.69 188.177 9.95C188.897 11.21 189.257 12.68 189.257 14.36ZM184.007 13.01C184.007 12.13 183.707 11.43 183.107 10.91C182.507 10.39 181.757 10.13 180.857 10.13C179.997 10.13 179.267 10.38 178.667 10.88C178.087 11.38 177.727 12.09 177.587 13.01H184.007Z" fill="#2B2B2B"/>
</svg>
