<svg width="35" height="36" viewBox="0 0 35 36" fill="none" xmlns="http://www.w3.org/2000/svg">
<g clip-path="url(#clip0_309_1371)">
<path d="M13.3 22.5279C13.3 22.7612 13.3778 22.9362 13.5333 23.0529C13.6889 23.1696 13.8444 23.2279 14 23.2279C14.1556 23.2279 14.3111 23.1696 14.4667 23.0529C14.6222 22.9362 14.7 22.7807 14.7 22.5862C14.7 22.3918 14.6222 22.2362 14.4667 22.1196C14.3111 22.0029 14.1556 21.9446 14 21.9446C13.8444 21.9446 13.6889 22.0029 13.5333 22.1196C13.3778 22.2362 13.3 22.3723 13.3 22.5279ZM16.8 22.5279C16.8 22.7612 16.8778 22.9362 17.0333 23.0529C17.1889 23.1696 17.3444 23.2279 17.5 23.2279C17.6556 23.2279 17.8111 23.1696 17.9667 23.0529C18.1222 22.9362 18.2 22.7807 18.2 22.5862C18.2 22.3918 18.1222 22.2362 17.9667 22.1196C17.8111 22.0029 17.6556 21.9446 17.5 21.9446C17.3444 21.9446 17.1889 22.0029 17.0333 22.1196C16.8778 22.2362 16.8 22.3723 16.8 22.5279ZM20.3 22.5279C20.3 22.7612 20.3778 22.9362 20.5333 23.0529C20.6889 23.1696 20.8444 23.2279 21 23.2279C21.1556 23.2279 21.3111 23.1696 21.4667 23.0529C21.6222 22.9362 21.7 22.7807 21.7 22.5862C21.7 22.3918 21.6222 22.2362 21.4667 22.1196C21.3111 22.0029 21.1556 21.9446 21 21.9446C20.8444 21.9446 20.6889 22.0029 20.5333 22.1196C20.3778 22.2362 20.3 22.3723 20.3 22.5279ZM6.53333 23.2279C5.6 23.2279 4.74444 22.9751 3.96667 22.4696C3.18889 21.964 2.625 21.2835 2.275 20.4279C1.925 19.5723 1.84722 18.6779 2.04167 17.7446C2.23611 16.8112 2.66389 16.014 3.325 15.3529C3.98611 14.6918 4.76389 14.2835 5.65833 14.1279C6.55278 13.9723 7.42778 14.0696 8.28333 14.4196C9.13889 14.7696 9.83889 15.3335 10.3833 16.1112C10.9278 16.889 11.2 17.7446 11.2 18.6779C11.2 19.9223 10.7528 20.9918 9.85833 21.8862C8.96389 22.7807 7.85556 23.2279 6.53333 23.2279ZM6.53333 15.4112C5.91111 15.4112 5.32778 15.5862 4.78333 15.9362C4.23889 16.2862 3.83056 16.7723 3.55833 17.3946C3.28611 18.0168 3.22778 18.6585 3.38333 19.3196C3.53889 19.9807 3.85 20.5251 4.31667 20.9529C4.78333 21.3807 5.32778 21.6723 5.95 21.8279C6.57222 21.9835 7.19444 21.9251 7.81667 21.6529C8.43889 21.3807 8.925 20.9723 9.275 20.4279C9.625 19.8835 9.8 19.3001 9.8 18.6779C9.8 17.7446 9.48889 16.9668 8.86667 16.3446C8.24444 15.7223 7.46667 15.4112 6.53333 15.4112ZM12.4833 31.5112H0.7C0.466667 31.5112 0.291667 31.4529 0.175 31.3362C0.0583333 31.2196 0 31.0446 0 30.8112V28.4779C0 26.689 0.641667 25.1529 1.925 23.8696C3.20833 22.5862 4.76389 21.9446 6.59167 21.9446C8.41944 21.9446 9.95556 22.5862 11.2 23.8696C12.4444 25.1529 13.1056 26.689 13.1833 28.4779V30.8112C13.1833 31.0446 13.1056 31.2196 12.95 31.3362C12.7944 31.4529 12.6389 31.5112 12.4833 31.5112ZM1.4 30.1112H11.7833V28.4779C11.7833 27.0779 11.2778 25.8723 10.2667 24.8612C9.25556 23.8501 8.03056 23.3446 6.59167 23.3446C5.15278 23.3446 3.92778 23.8501 2.91667 24.8612C1.90556 25.8723 1.4 27.0779 1.4 28.4779V30.1112ZM28.4667 23.2279C27.5333 23.2279 26.6778 22.9751 25.9 22.4696C25.1222 21.964 24.5583 21.2835 24.2083 20.4279C23.8583 19.5723 23.7611 18.6779 23.9167 17.7446C24.0722 16.8112 24.4806 16.014 25.1417 15.3529C25.8028 14.6918 26.6 14.2835 27.5333 14.1279C28.4667 13.9723 29.3611 14.0696 30.2167 14.4196C31.0722 14.7696 31.7528 15.3335 32.2583 16.1112C32.7639 16.889 33.0167 17.7446 33.0167 18.6779C33.0167 19.9223 32.5694 20.9918 31.675 21.8862C30.7806 22.7807 29.7111 23.2279 28.4667 23.2279ZM28.4667 15.4112C27.7667 15.4112 27.1444 15.5862 26.6 15.9362C26.0556 16.2862 25.6667 16.7723 25.4333 17.3946C25.2 18.0168 25.1417 18.6585 25.2583 19.3196C25.375 19.9807 25.6667 20.5251 26.1333 20.9529C26.6 21.3807 27.1639 21.6723 27.825 21.8279C28.4861 21.9835 29.1083 21.9251 29.6917 21.6529C30.275 21.3807 30.7417 20.9723 31.0917 20.4279C31.4417 19.8835 31.6167 19.3001 31.6167 18.6779C31.6167 17.7446 31.3056 16.9668 30.6833 16.3446C30.0611 15.7223 29.3222 15.4112 28.4667 15.4112ZM34.3 31.5112H22.5167C22.3611 31.5112 22.2056 31.4529 22.05 31.3362C21.8944 31.2196 21.8167 31.0446 21.8167 30.8112V28.4779C21.8944 26.689 22.5556 25.1529 23.8 23.8696C25.0444 22.5862 26.5806 21.9446 28.4083 21.9446C30.2361 21.9446 31.7917 22.5862 33.075 23.8696C34.3583 25.1529 35 26.689 35 28.4779V30.8112C35 31.0446 34.9417 31.2196 34.825 31.3362C34.7083 31.4529 34.5333 31.5112 34.3 31.5112ZM23.2167 30.1112H33.6V28.4779C33.6 27.0779 33.0944 25.8723 32.0833 24.8612C31.0722 23.8501 29.8472 23.3446 28.4083 23.3446C26.9694 23.3446 25.7444 23.8501 24.7333 24.8612C23.7222 25.8723 23.2167 27.0779 23.2167 28.4779V30.1112ZM14.35 18.4446C14.1944 18.4446 14.0389 18.3862 13.8833 18.2696C13.7278 18.1529 13.65 18.0168 13.65 17.8612V15.7612H13.0667C12.4444 15.7612 11.9 15.5473 11.4333 15.1196C10.9667 14.6918 10.7333 14.1668 10.7333 13.5446V6.89456C10.7333 6.27234 10.9667 5.74734 11.4333 5.31956C11.9 4.89179 12.4444 4.6779 13.0667 4.6779H21.8167C22.4389 4.6779 22.9639 4.89179 23.3917 5.31956C23.8194 5.74734 24.0333 6.27234 24.0333 6.89456V13.5446C24.0333 14.1668 23.8194 14.6918 23.3917 15.1196C22.9639 15.5473 22.4389 15.7612 21.8167 15.7612H17.3833L14.8167 18.3279C14.7389 18.4835 14.5833 18.5223 14.35 18.4446ZM13.0667 6.0779C12.8333 6.0779 12.6194 6.15567 12.425 6.31123C12.2306 6.46679 12.1333 6.66123 12.1333 6.89456V13.5446C12.1333 13.7779 12.2306 13.9918 12.425 14.1862C12.6194 14.3807 12.8333 14.4779 13.0667 14.4779H14.35C14.5833 14.4779 14.7583 14.5362 14.875 14.6529C14.9917 14.7696 15.05 14.9057 15.05 15.0612V16.1112L16.5667 14.5946C16.7222 14.5168 16.8778 14.4779 17.0333 14.4779H21.8167C22.05 14.4779 22.2639 14.3807 22.4583 14.1862C22.6528 13.9918 22.75 13.7779 22.75 13.5446V6.89456C22.75 6.66123 22.6528 6.46679 22.4583 6.31123C22.2639 6.15567 22.05 6.0779 21.8167 6.0779H13.0667Z" fill="#2B2B2B"/>
</g>
<defs>
<clipPath id="clip0_309_1371">
<rect width="35" height="35" fill="white" transform="matrix(1 0 0 -1 0 35.5945)"/>
</clipPath>
</defs>
</svg>
